<?xml version="1.0" encoding="utf-8"?>
<!-- Generator: Adobe Illustrator 17.0.0, SVG Export Plug-In . SVG Version: 6.00 Build 0)  -->
<!DOCTYPE svg PUBLIC "-//W3C//DTD SVG 1.1//EN" "http://www.w3.org/Graphics/SVG/1.1/DTD/svg11.dtd">
<svg version="1.1"
	 id="svg3025" xmlns:dc="http://purl.org/dc/elements/1.1/" xmlns:cc="http://creativecommons.org/ns#" xmlns:rdf="http://www.w3.org/1999/02/22-rdf-syntax-ns#" xmlns:svg="http://www.w3.org/2000/svg" xmlns:sodipodi="http://sodipodi.sourceforge.net/DTD/sodipodi-0.dtd" xmlns:inkscape="http://www.inkscape.org/namespaces/inkscape" sodipodi:docname="map_marker_font_awesome.svg" inkscape:version="0.48.3.1 r9886"
	 xmlns="http://www.w3.org/2000/svg" xmlns:xlink="http://www.w3.org/1999/xlink" x="0px" y="0px" width="612px" height="792px"
	 viewBox="0 0 612 792" enable-background="new 0 0 612 792" xml:space="preserve">
<sodipodi:namedview  inkscape:cy="896" inkscape:cx="896" inkscape:zoom="0.13169643" showgrid="false" guidetolerance="10" gridtolerance="10" objecttolerance="10" bordercolor="#666666" pagecolor="#ffffff" borderopacity="1" id="namedview3031" inkscape:current-layer="svg3025" inkscape:window-maximized="0" inkscape:window-y="25" inkscape:window-x="0" inkscape:window-height="480" inkscape:pageshadow="2" inkscape:window-width="640" inkscape:pageopacity="0">
	</sodipodi:namedview>
<g>
	<g id="g3027" transform="matrix(1,0,0,-1,364.47458,1270.2373)">
		<path id="path3029" inkscape:connector-curvature="0" fill="#BCB7B7" d="M22.286,1017c0,24.134-8.538,44.739-25.614,61.815
			c-17.076,17.076-37.681,25.614-61.815,25.614s-44.739-8.538-61.815-25.614c-17.076-17.076-25.614-37.681-25.614-61.815
			s8.538-44.739,25.614-61.815c17.076-17.076,37.681-25.614,61.815-25.614s44.739,8.538,61.815,25.614
			C13.748,972.261,22.286,992.866,22.286,1017z M109.714,1017c0-24.817-3.757-45.194-11.27-61.132L-25.868,691.534
			c-3.643-7.513-9.05-13.433-16.222-17.759c-7.172-4.326-14.856-6.489-23.052-6.489s-15.881,2.163-23.052,6.489
			c-7.172,4.326-12.465,10.246-15.881,17.759L-228.73,955.868C-236.243,971.806-240,992.183-240,1017
			c0,48.268,17.076,89.478,51.228,123.63c34.152,34.152,75.362,51.228,123.629,51.228s89.478-17.076,123.629-51.228
			C92.638,1106.478,109.714,1065.268,109.714,1017z"/>
	</g>
	<ellipse cx="305.5" cy="253" rx="94" ry="94.5"/>
	<ellipse cx="320" cy="273.5" rx="4.5" ry="1"/>
</g>
<g id="Layer_1_1_">
	<ellipse fill="#C6F7C6" cx="299.332" cy="254.276" rx="105.201" ry="99.045"/>
	<path fill="#06F906" d="M305.997,263.015l-61.458,13.878c-0.444,0.137-0.915-0.092-1.099-0.513l-2.978-6.875
		c-0.184-0.422-0.019-0.935,0.38-1.167l53.716-30.403c7.466-3.851,13.626-2.92,17.719,0.25c2.038,1.582,3.552,3.686,4.443,6.04
		c0.898,2.336,1.178,4.906,0.773,7.405c-0.821,4.976-4.415,9.588-11.456,11.38L305.997,263.015L305.997,263.015z M221.092,340.848
		c-5.667-5.332-10.776-11.241-15.254-17.614c-4.44-6.317-8.249-13.117-11.352-20.271c-3.028-7.023-5.37-14.418-6.967-22.11
		c-1.523-7.469-2.341-15.198-2.341-23.113c0-15.459,3.084-30.192,8.64-43.644c5.797-13.972,14.269-26.551,24.804-37.066
		c10.516-10.516,23.095-19.007,37.066-24.785c13.452-5.574,28.186-8.658,43.644-8.658c15.421,0,30.118,3.084,43.532,8.658
		c13.972,5.797,26.532,14.307,37.066,24.841c10.553,10.553,19.063,23.151,24.86,37.104c5.593,13.451,8.696,28.167,8.696,43.551
		c0,7.525-0.743,14.883-2.155,22.017c-1.449,7.32-3.623,14.399-6.428,21.181c-2.861,6.893-6.373,13.47-10.479,19.602
		c-4.143,6.206-8.881,11.984-14.121,17.279c-0.353,0.353-0.948,0.353-1.3,0l-5.704-5.685c-0.112-0.037-0.223-0.112-0.316-0.204
		l-15.904-15.904c-0.353-0.353-0.353-0.948,0-1.3l8.342-8.342c0.353-0.353,0.948-0.353,1.3,0l12.281,12.281
		c2.601-3.381,4.998-6.912,7.153-10.591c2.323-3.939,4.366-8.064,6.131-12.319c2.378-5.76,4.255-11.798,5.518-18.041
		c1.189-5.797,1.858-11.798,1.988-17.911h-16.926c-0.502,0-0.929-0.409-0.929-0.929v-11.798c0-0.502,0.409-0.929,0.929-0.929h16.276
		c-1.264-10.869-4.292-21.237-8.77-30.805c-4.626-9.866-10.813-18.859-18.245-26.699l-10.888,10.888c-0.353,0.353-0.948,0.353-1.3,0
		l-8.342-8.342c-0.353-0.353-0.353-0.948,0-1.3l10.498-10.498c-8.249-6.633-17.558-12.003-27.628-15.793
		c-9.754-3.66-20.215-5.852-31.121-6.28v14.919c0,0.502-0.409,0.929-0.929,0.929h-11.817c-0.502,0-0.929-0.409-0.929-0.929v-14.548
		c-10.832,1.022-21.181,3.79-30.731,7.971c-9.866,4.329-18.895,10.2-26.792,17.279l10.906,10.906c0.353,0.353,0.353,0.948,0,1.3
		l-8.342,8.342c-0.353,0.353-0.948,0.353-1.3,0l-10.776-10.776c-6.93,8.175-12.597,17.483-16.647,27.61
		c-3.902,9.847-6.336,20.419-6.986,31.455h16.778c0.502,0,0.929,0.409,0.929,0.929v11.817c0,0.502-0.409,0.929-0.929,0.929h-16.666
		c0.409,5.463,1.264,10.776,2.508,15.941c1.338,5.592,3.159,10.999,5.407,16.202c1.951,4.515,4.218,8.844,6.763,12.969
		c2.397,3.883,5.054,7.599,7.952,11.092l13.452-13.452c0.353-0.353,0.948-0.353,1.3,0l8.342,8.342c0.353,0.353,0.353,0.948,0,1.3
		c-7.692,7.692-15.031,15.068-22.463,22.965C222.04,341.183,221.464,341.202,221.092,340.848L221.092,340.848z"/>
</g>
<g id="Layer_2">
</g>
</svg>
