<?xml version="1.0" encoding="utf-8"?>
<!-- Generator: Adobe Illustrator 17.0.0, SVG Export Plug-In . SVG Version: 6.00 Build 0)  -->
<!DOCTYPE svg PUBLIC "-//W3C//DTD SVG 1.1//EN" "http://www.w3.org/Graphics/SVG/1.1/DTD/svg11.dtd">
<svg version="1.1" id="Layer_1" xmlns="http://www.w3.org/2000/svg" xmlns:xlink="http://www.w3.org/1999/xlink" x="0px" y="0px"
	 width="612px" height="792px" viewBox="0 0 612 792" enable-background="new 0 0 612 792" xml:space="preserve">
<g id="Layer_1_1_">
	<ellipse fill="#F7C6C9" cx="300" cy="433" rx="282" ry="265.5"/>
	<path fill="#F70B0B" d="M96.272,660.064c-15.19-14.294-28.887-30.132-40.89-47.215c-11.903-16.934-22.113-35.162-30.431-54.337
		c-8.118-18.826-14.394-38.648-18.677-59.268C2.191,479.224,0,458.505,0,437.288c0-41.438,8.268-80.933,23.159-116.991
		c15.539-37.453,38.25-71.171,66.489-99.36c28.189-28.189,61.907-50.95,99.36-66.439c36.059-14.941,75.554-23.209,116.991-23.209
		c41.338,0,80.733,8.268,116.692,23.209c37.453,15.539,71.121,38.35,99.36,66.589c28.289,28.289,51.1,62.057,66.639,99.46
		C603.683,356.604,612,396.05,612,437.288c0,20.171-1.992,39.894-5.777,59.019c-3.885,19.623-9.712,38.599-17.232,56.777
		c-7.67,18.478-17.083,36.108-28.09,52.544c-11.106,16.635-23.807,32.124-37.852,46.318c-0.946,0.946-2.54,0.946-3.486,0
		l-15.29-15.24c-0.299-0.1-0.598-0.299-0.847-0.548l-42.633-42.633c-0.946-0.946-0.946-2.54,0-3.486l22.362-22.362
		c0.946-0.946,2.54-0.946,3.486,0l32.921,32.921c6.973-9.064,13.398-18.527,19.175-28.389c6.226-10.559,11.704-21.615,16.436-33.021
		c6.375-15.439,11.405-31.626,14.792-48.36c3.188-15.539,4.98-31.626,5.329-48.012h-45.372c-1.345,0-2.49-1.096-2.49-2.49V408.7
		c0-1.345,1.096-2.49,2.49-2.49h43.629c-3.387-29.136-11.505-56.927-23.508-82.576c-12.401-26.446-28.986-50.552-48.908-71.569
		l-29.186,29.186c-0.946,0.946-2.54,0.946-3.486,0l-22.362-22.362c-0.946-0.946-0.946-2.54,0-3.486l28.14-28.14
		c-22.113-17.78-47.065-32.174-74.06-42.334c-26.147-9.812-54.188-15.688-83.423-16.834v39.993c0,1.345-1.096,2.49-2.49,2.49
		h-31.676c-1.345,0-2.49-1.096-2.49-2.49V169.09c-29.036,2.739-56.777,10.16-82.377,21.366
		c-26.446,11.604-50.651,27.343-71.818,46.318l29.235,29.235c0.946,0.946,0.946,2.54,0,3.486l-22.362,22.362
		c-0.946,0.946-2.54,0.946-3.486,0l-28.887-28.887c-18.577,21.914-33.768,46.866-44.625,74.01
		c-10.459,26.396-16.983,54.735-18.727,84.319h44.974c1.345,0,2.49,1.096,2.49,2.49v31.676c0,1.345-1.096,2.49-2.49,2.49H37.354
		c1.096,14.643,3.387,28.887,6.724,42.732c3.586,14.991,8.467,29.484,14.493,43.43C63.8,556.22,69.877,567.824,76.7,578.881
		c6.425,10.409,13.547,20.37,21.316,29.733l36.059-36.059c0.946-0.946,2.54-0.946,3.486,0l22.362,22.362
		c0.946,0.946,0.946,2.54,0,3.486c-20.619,20.619-40.292,40.392-60.214,61.559C98.813,660.961,97.269,661.011,96.272,660.064
		L96.272,660.064z M327.321,363.065l116.03,122.723c0.922,0.837,1.039,2.235,0.318,3.235l-11.781,16.266
		c-0.72,1.001-2.129,1.323-3.209,0.719l-143.546-82.279c-19.087-11.948-25.363-27.426-23.652-41.196
		c0.86-6.861,3.642-13.228,7.851-18.502c4.16-5.264,9.699-9.424,16.018-11.908c12.597-4.91,28.143-2.931,41.903,10.853
		L327.321,363.065L327.321,363.065z"/>
</g>
<g id="Layer_2">
</g>
</svg>
